<?xml version="1.0" encoding="UTF-8" standalone="no"?>
<!-- Created with Inkscape (http://www.inkscape.org/) -->

<svg
   xmlns:dc="http://purl.org/dc/elements/1.1/"
   xmlns:cc="http://creativecommons.org/ns#"
   xmlns:rdf="http://www.w3.org/1999/02/22-rdf-syntax-ns#"
   xmlns:svg="http://www.w3.org/2000/svg"
   xmlns="http://www.w3.org/2000/svg"
   xmlns:sodipodi="http://sodipodi.sourceforge.net/DTD/sodipodi-0.dtd"
   xmlns:inkscape="http://www.inkscape.org/namespaces/inkscape"
   width="420"
   height="420"
   id="svg2"
   version="1.1"
   inkscape:version="0.47 r22583"
   sodipodi:docname="triggy.svg"
   inkscape:export-filename="/Users/yetzt/dev/triggy/assets/images/triggy-background.png"
   inkscape:export-xdpi="128.57001"
   inkscape:export-ydpi="128.57001">
  <defs
     id="defs4">
    <inkscape:perspective
       sodipodi:type="inkscape:persp3d"
       inkscape:vp_x="0 : 526.18109 : 1"
       inkscape:vp_y="0 : 1000 : 0"
       inkscape:vp_z="744.09448 : 526.18109 : 1"
       inkscape:persp3d-origin="372.04724 : 350.78739 : 1"
       id="perspective10" />
    <filter
       inkscape:collect="always"
       id="filter5223"
       x="-0.13528398"
       width="1.270568"
       y="-0.14546507"
       height="1.2909301">
      <feGaussianBlur
         inkscape:collect="always"
         stdDeviation="21.594064"
         id="feGaussianBlur5225" />
    </filter>
  </defs>
  <sodipodi:namedview
     id="base"
     pagecolor="#ffffff"
     bordercolor="#666666"
     borderopacity="1.0"
     inkscape:pageopacity="0.0"
     inkscape:pageshadow="2"
     inkscape:zoom="1"
     inkscape:cx="173.59654"
     inkscape:cy="214.92561"
     inkscape:document-units="px"
     inkscape:current-layer="layer1"
     showgrid="false"
     inkscape:window-width="1295"
     inkscape:window-height="882"
     inkscape:window-x="5"
     inkscape:window-y="45"
     inkscape:window-maximized="0"
     showguides="true"
     inkscape:guide-bbox="true" />
  <metadata
     id="metadata7">
    <rdf:RDF>
      <cc:Work
         rdf:about="">
        <dc:format>image/svg+xml</dc:format>
        <dc:type
           rdf:resource="http://purl.org/dc/dcmitype/StillImage" />
        <dc:title></dc:title>
      </cc:Work>
    </rdf:RDF>
  </metadata>
  <g
     inkscape:label="Ebene 1"
     inkscape:groupmode="layer"
     id="layer1"
     transform="translate(-126,-304.36218)">
    <path
       style="opacity:0.60660658000000001;fill:#f9f9f9;fill-opacity:0.570997;fill-rule:nonzero;stroke:none"
       d="M 336.0625 23.78125 C 334.65753 23.83245 333.2569 24.04049 331.875 24.40625 C 316.49148 29.84858 305.63598 43.10283 297.78125 56.8125 C 233.73092 56.8095 170.06788 68.30822 108.40625 85.15625 C 97.38385 88.56331 86.46255 92.35358 75.625 96.34375 C 62.44888 86.77191 45.56134 77.00749 28.875 82.21875 C 16.81543 87.05657 13.08713 103.92011 20.84375 114.0625 C 26.90019 124.15353 36.44913 131.54878 46.34375 137.5625 C 45.12765 196.35972 55.54546 254.99446 72 311.3125 C 74.46281 318.91308 77.13653 326.49276 80.15625 333.90625 C 71.75457 346.16727 63.12646 362.03987 69.375 377.0625 C 74.78245 388.4063 90.6789 391.33535 100.53125 383.96875 C 109.05349 378.94595 115.87143 371.49849 121.5 363.53125 C 178.78373 364.29077 235.40296 352.36743 290.71875 338.4375 C 311.48524 332.76957 331.8594 325.90007 351.8125 317.78125 C 364.68661 326.44451 381.10401 335.27639 396.875 329.15625 C 408.81455 323.3469 411.0621 306.19279 402.84375 296.40625 C 397.22069 287.82076 389.0653 281.22661 380.46875 275.75 C 380.22945 224.61928 369.52165 174.02663 355.8125 124.9375 C 351.46778 110.77192 346.50803 96.75794 340.75 83.0625 C 350.47978 70.21029 360.6094 53.97105 356.15625 37.15625 C 353.44313 29.38743 345.59057 24.09708 337.46875 23.78125 C 337.00018 23.76305 336.53082 23.76415 336.0625 23.78125 z M 337.3125 27.8125 C 339.82861 27.7815 342.25453 28.36242 344.5625 29.65625 C 362.50329 39.71371 349.74087 66.05193 336.09375 82.4375 C 345.10044 103.56552 356.21434 133.30998 366.3125 185.03125 C 374.88685 228.9478 376.87237 257.36148 376.46875 277.90625 C 394.10079 288.62871 411.99737 306.90098 399.84375 321.75 C 390.26543 333.45255 367.86994 324.7301 352.28125 313.21875 C 328.38828 322.99642 294.77121 335.57658 233.1875 347.5625 C 176.27641 358.63901 142.91729 360.30053 119.5 359.46875 C 109.03823 374.96807 92.48346 389.29689 79.96875 382.28125 C 63.7106 373.16707 72.70811 350.67559 84.6875 334.34375 C 76.6739 315.31695 67.97437 287.93884 59.75 243.03125 C 50.09973 190.33788 49.69025 158.41938 50.40625 135.375 C 32.09022 124.89457 12.03522 105.65269 24.71875 90.15625 C 26.99407 87.37632 29.98057 85.77277 33.4375 85.0625 C 45.49672 82.58489 63.14793 91.2827 75.25 101.0625 C 95.5269 92.65194 124.55283 83.29914 172.9375 74 C 175.60651 73.48692 178.36799 72.98108 181.15625 72.46875 C 239.31277 61.78242 274.61052 60.62665 300.09375 60.84375 C 308.01261 45.63476 323.72551 27.98004 337.3125 27.8125 z M 172.9375 134.59375 C 172.27618 134.59575 171.59941 134.5958 170.9375 134.625 C 142.94712 134.627 117.565 160.1068 119.4375 188.375 C 120.31724 215.23275 145.02383 237.90645 171.6875 237.59375 C 189.61477 237.98417 207.46778 228.86933 217.34375 213.90625 C 224.54588 233.17118 247.09062 247.13501 267.46875 239.71875 C 291.1303 231.54025 301.94471 202.61355 294.4375 179.6875 C 288.88069 160.22602 269.10144 144.16396 248.28125 148.0625 C 237.28658 149.83469 227.49812 157.45944 221.5625 166.03125 C 213.45911 147.16389 193.43847 134.52384 172.9375 134.59375 z M 303.21875 134.75 C 302.24652 134.78429 301.42146 135.43765 301.09375 136.3125 C 300.77914 137.15235 300.92252 138.19747 301.875 139.03125 L 309.28125 145.5 C 310.83472 146.82156 311.8293 147.69858 313.0625 148.75 C 312.39385 149.11941 311.71657 149.54936 311.03125 149.9375 C 310.97525 149.8813 310.93107 149.80617 310.875 149.75 C 305.77783 144.60912 308.17099 147.03643 303.65625 142.4375 C 301.29147 140.02865 297.88521 143.3724 300.25 145.78125 C 304.33938 149.94678 303.377 148.94333 306.78125 152.375 C 304.73403 153.60866 302.72887 154.90001 300.84375 156.34375 C 300.52599 156.58711 300.24305 156.86647 299.9375 157.125 C 297.76294 159.70688 301.38793 162.76938 303.5625 160.1875 C 303.6227 160.1639 303.69661 160.1614 303.75 160.125 C 306.43063 158.29639 304.16328 159.62142 308.03125 157.21875 C 308.7643 156.76341 309.50881 156.3159 310.25 155.875 C 311.42173 157.05057 312.60678 158.23334 313.78125 159.40625 C 312.50365 160.31019 311.24809 161.24271 310 162.1875 C 307.51686 164.47416 310.73562 167.97416 313.21875 165.6875 C 314.55567 164.72154 315.90004 163.79188 317.25 162.84375 C 319.146 164.71921 321.04832 166.61845 322.96875 168.46875 C 324.59701 170.03754 329.21101 174.39038 331.25 176.15625 C 331.88739 176.70826 332.58755 177.22834 333.25 177.75 C 336.25709 179.28369 338.41334 175.03368 335.40625 173.5 C 330.55393 169.1815 325.90471 164.65567 321.28125 160.09375 C 321.92203 159.66182 322.54191 159.23721 323.1875 158.8125 C 323.55093 158.57342 323.91587 158.32983 324.28125 158.09375 C 324.49856 158.26959 324.68027 158.38012 324.90625 158.5625 C 328.87936 161.76895 332.44343 164.68786 336.65625 167.46875 C 338.04471 168.38523 338.47491 168.56061 339.59375 169.0625 C 342.67367 170.4441 344.61118 166.0691 341.53125 164.6875 C 340.53984 164.24276 340.24823 164.16087 339.03125 163.34375 C 335.24224 160.7997 332.03456 158.19231 328.46875 155.3125 C 330.28529 153.3562 327.88638 150.1064 325.28125 151.78125 C 325.07248 151.91551 324.865 152.05312 324.65625 152.1875 C 323.54964 151.27987 322.49412 150.4301 321.53125 149.625 C 322.59324 149.06115 323.65707 148.50183 324.71875 147.9375 L 331.375 144.46875 C 334.36486 142.90174 332.11486 138.62048 329.125 140.1875 L 322.46875 143.71875 C 320.76349 144.62539 319.18384 145.46563 317.59375 146.3125 C 316.00145 144.95788 314.56811 143.71434 312.40625 141.875 L 305.03125 135.4375 C 304.43595 134.9164 303.80209 134.72942 303.21875 134.75 z M 172.59375 138.625 C 196.38924 138.625 216.23141 154.98014 220.75 176.6875 C 227.72909 158.60348 245.05151 148.1195 262.71875 152.59375 C 283.02906 157.73736 296.07796 180.69778 291.875 203.90625 C 287.67204 227.11472 267.81031 241.76861 247.5 236.625 C 232.53559 232.83524 221.49342 219.36344 218.40625 203.25 C 211.29173 220.99266 193.46774 233.5625 172.59375 233.5625 C 145.46366 233.5625 123.46875 212.30934 123.46875 186.09375 C 123.46875 159.87816 145.46366 138.625 172.59375 138.625 z M 62.625 139.09375 C 62.49145 139.10175 62.35195 139.12295 62.21875 139.15625 C 53.67973 141.29371 58.36305 189.79861 66.28125 237 C 74.19945 284.2014 88.56431 328.74214 93.875 327.96875 C 99.72365 327.11702 95.8557 281.54513 87.9375 234.34375 C 80.14302 187.87986 71.03876 138.58689 62.625 139.09375 z M 316.96875 152.03125 C 318.07699 152.96595 319.1937 153.90494 320.40625 154.90625 C 319.53293 155.47953 318.67967 156.07378 317.8125 156.65625 C 316.72375 155.56975 315.61695 154.49561 314.53125 153.40625 C 315.34259 152.95379 316.15257 152.4751 316.96875 152.03125 z M 193.84375 183.21875 C 189.80396 183.18464 185.91014 185.23384 183.875 188.875 C 180.91479 194.17123 183.01327 200.84374 188.5625 203.78125 C 194.11173 206.71876 201.00854 204.79623 203.96875 199.5 L 193.9375 194.1875 L 203.46875 188.34375 C 202.42093 186.78325 200.97142 185.48845 199.28125 184.59375 C 197.54712 183.67578 195.68002 183.23425 193.84375 183.21875 z M 243.84375 187.21875 C 239.80396 187.18464 235.91014 189.23384 233.875 192.875 C 230.91479 198.17123 233.01327 204.84374 238.5625 207.78125 C 244.11173 210.71876 251.00854 208.79623 253.96875 203.5 L 243.9375 198.1875 L 253.46875 192.34375 C 252.42093 190.78325 250.97142 189.48845 249.28125 188.59375 C 247.54712 187.67578 245.68002 187.23425 243.84375 187.21875 z M 326.4375 242.09375 A 2.80028 2.80028 0 0 0 326.09375 242.125 A 2.80028 2.80028 0 0 0 323.71875 244.0625 C 319.11791 257.9668 312.49663 270.75769 298.21875 280.375 C 283.94087 289.99231 261.68739 296.51748 225.59375 296.75 C 207.68985 296.86534 186.24671 295.69613 168.34375 290.9375 C 150.44079 286.17887 136.49443 277.97667 132.0625 264.46875 A 2.80028 2.80028 0 1 0 126.75 266.21875 C 132.04724 282.36404 148.15543 291.35975 166.90625 296.34375 C 185.65707 301.32775 207.45722 302.46078 225.625 302.34375 C 262.37535 302.10699 285.80424 295.49837 301.34375 285.03125 C 316.88326 274.56413 324.24415 260.31098 329.03125 245.84375 A 2.80028 2.80028 0 0 0 326.4375 242.09375 z "
       transform="translate(126,304.36218)"
       id="path3660" />
    <path
       style="fill:#1a1a1a;fill-opacity:1;fill-rule:nonzero;stroke:none"
       d="m 416,597.86218 0,0 z"
       id="path3631"
       sodipodi:nodetypes="cc" />
  </g>
</svg>
