<?xml version="1.0" encoding="UTF-8" standalone="no"?>
<!-- Created with Inkscape (http://www.inkscape.org/) -->

<svg
   xmlns:dc="http://purl.org/dc/elements/1.1/"
   xmlns:cc="http://creativecommons.org/ns#"
   xmlns:rdf="http://www.w3.org/1999/02/22-rdf-syntax-ns#"
   xmlns:svg="http://www.w3.org/2000/svg"
   xmlns="http://www.w3.org/2000/svg"
   xmlns:sodipodi="http://sodipodi.sourceforge.net/DTD/sodipodi-0.dtd"
   xmlns:inkscape="http://www.inkscape.org/namespaces/inkscape"
   width="420"
   height="420"
   id="svg2"
   version="1.1"
   inkscape:version="0.47 r22583"
   sodipodi:docname="triggy.svg"
   inkscape:export-filename="/Users/yetzt/Desktop/triggy/triggy.png"
   inkscape:export-xdpi="109.71"
   inkscape:export-ydpi="109.71">
  <defs
     id="defs4">
    <inkscape:perspective
       sodipodi:type="inkscape:persp3d"
       inkscape:vp_x="0 : 526.18109 : 1"
       inkscape:vp_y="0 : 1000 : 0"
       inkscape:vp_z="744.09448 : 526.18109 : 1"
       inkscape:persp3d-origin="372.04724 : 350.78739 : 1"
       id="perspective10" />
    <filter
       inkscape:collect="always"
       id="filter5223"
       x="-0.13528398"
       width="1.270568"
       y="-0.14546507"
       height="1.2909301">
      <feGaussianBlur
         inkscape:collect="always"
         stdDeviation="21.594064"
         id="feGaussianBlur5225" />
    </filter>
  </defs>
  <sodipodi:namedview
     id="base"
     pagecolor="#ffffff"
     bordercolor="#666666"
     borderopacity="1.0"
     inkscape:pageopacity="0.0"
     inkscape:pageshadow="2"
     inkscape:zoom="1"
     inkscape:cx="201.32019"
     inkscape:cy="165.32019"
     inkscape:document-units="px"
     inkscape:current-layer="layer1"
     showgrid="false"
     inkscape:window-width="1295"
     inkscape:window-height="882"
     inkscape:window-x="5"
     inkscape:window-y="45"
     inkscape:window-maximized="0"
     showguides="true"
     inkscape:guide-bbox="true" />
  <metadata
     id="metadata7">
    <rdf:RDF>
      <cc:Work
         rdf:about="">
        <dc:format>image/svg+xml</dc:format>
        <dc:type
           rdf:resource="http://purl.org/dc/dcmitype/StillImage" />
        <dc:title></dc:title>
      </cc:Work>
    </rdf:RDF>
  </metadata>
  <g
     inkscape:label="Ebene 1"
     inkscape:groupmode="layer"
     id="layer1"
     transform="translate(-126,-304.36218)">
    <rect
       style="fill:#39678e;fill-opacity:1;fill-rule:nonzero;stroke:none"
       id="rect5179"
       width="420"
       height="420"
       x="126"
       y="304.36218" />
    <path
       id="path5213"
       d="m 184.03125,382.28125 c -3.52871,0.0553 -6.77883,1.09772 -9.53125,3.40625 -15.34306,12.86865 0.79513,35.48502 16.84375,49.1875 -4.98717,22.50965 -10.53081,53.9624 -10.84375,107.53125 -0.2667,45.6537 3.19415,74.15894 7.53125,94.34375 -14.80648,13.82038 -27.81183,34.24124 -13.53125,46.21875 10.99248,9.21969 29.90194,-1.77802 43.0625,-15.0625 22.85453,5.17026 55.95933,9.74193 113.9375,9.4375 62.7384,-0.32941 98.11216,-6.42788 123.40625,-11.59375 13.17718,14.20845 33.53827,26.93686 45.125,17.21875 14.70204,-12.33101 0.51907,-33.62435 -14.8125,-47.4375 4.21559,-20.11167 7.54264,-48.38001 7.28125,-93.125 -0.30785,-52.69694 -5.67146,-84.00349 -10.59375,-106.4375 16.45513,-13.56316 33.88355,-37.06412 18.125,-50.28125 -12.97435,-10.88195 -36.92755,6.4083 -49.5,22.375 C 425.53252,403.11218 390.62937,397.68546 331.5,397.375 c -2.8349,-0.0149 -5.62589,-0.0392 -8.34375,-0.0312 -49.26997,0.14299 -79.54435,3.94274 -101.03125,8.4375 -10.07321,-11.85896 -25.78416,-23.69277 -38.09375,-23.5 z"
       style="fill:#e6f0fe;fill-opacity:1;fill-rule:nonzero;stroke:none;filter:url(#filter5223);opacity:0.75975976"
       transform="matrix(0.98257114,-0.18588696,0.18588696,0.98257114,-92.439762,48.001832)" />
    <path
       style="fill:#333333;fill-opacity:1;fill-rule:nonzero;stroke:none;opacity:0.60660661"
       d="m 457.87126,328.75566 c -15.38352,5.44233 -26.24161,18.72494 -34.09634,32.43461 -64.05033,-0.003 -127.71813,11.47382 -189.37976,28.32185 -11.0224,3.40706 -21.93421,7.20301 -32.77176,11.19318 -13.17612,-9.57184 -30.06535,-19.3293 -46.75169,-14.11804 -12.05957,4.83782 -15.79243,21.68737 -8.03581,31.82976 6.05644,10.09103 15.60811,17.49921 25.50273,23.51293 -1.2161,58.79722 9.19347,117.42284 25.64801,173.74088 2.46281,7.60058 5.13456,15.17146 8.15428,22.58495 -8.40168,12.26102 -17.00722,28.13572 -10.75868,43.15835 5.40745,11.3438 21.29028,14.29205 31.14263,6.92545 8.52224,-5.0228 15.34326,-12.47494 20.97183,-20.44218 57.28373,0.75952 113.89678,-11.18173 169.21257,-25.11166 20.76649,-5.66793 41.1535,-12.53677 61.1066,-20.65559 12.87411,8.66326 29.28693,17.50539 45.05792,11.38525 11.93955,-5.80935 14.17368,-22.9536 5.95533,-32.74014 -5.62306,-8.58549 -13.76097,-15.19647 -22.35752,-20.67308 -0.2393,-51.13072 -10.93903,-101.70731 -24.64818,-150.79644 -4.34472,-14.16558 -9.32389,-28.19997 -15.08192,-41.89541 9.72978,-12.85221 19.87989,-29.07132 15.42674,-45.88612 -3.33923,-9.56162 -14.47017,-15.36949 -24.29698,-12.76855 z"
       id="path3660" />
    <path
       style="fill:#e6f0fe;fill-opacity:1;fill-rule:nonzero;stroke:none"
       d="m 159.44513,389.41135 c -3.45693,0.71027 -6.45663,2.33868 -8.73195,5.11861 -12.68353,15.49644 7.37747,34.71876 25.6935,45.19919 -0.716,23.04438 -0.31637,54.97944 9.3339,107.67281 8.22437,44.90759 16.92366,72.27269 24.93726,91.29949 -11.97939,16.33184 -20.9621,38.81431 -4.70395,47.92849 12.51471,7.01564 29.05027,-7.30541 39.51204,-22.80473 23.41729,0.83178 56.79492,-0.82997 113.70601,-11.90648 61.58371,-11.98592 95.20732,-24.55363 119.10029,-34.3313 15.58869,11.51135 37.96095,20.23305 47.53927,8.5305 12.15362,-14.84902 -5.74031,-33.13481 -23.37235,-43.85727 0.40362,-20.54477 -1.58203,-48.93888 -10.15638,-92.85543 -10.09816,-51.72127 -21.18776,-81.48515 -30.19445,-102.61317 13.64712,-16.38557 26.40326,-42.71665 8.46247,-52.77411 -14.77103,-8.28053 -35.09273,13.16096 -44.47805,31.18643 -25.48323,-0.2171 -60.78682,0.9388 -118.94334,11.62513 -2.78826,0.51233 -5.53512,1.00726 -8.20413,1.52034 -48.38467,9.29914 -77.42507,18.66028 -97.70197,27.07084 -12.10207,-9.7798 -29.73894,-18.4869 -41.79816,-16.00929 l -1e-5,-5e-5 z"
       id="path3654"
       sodipodi:nodetypes="cscscscscscscscssccc" />
    <path
       style="fill:#b7afc5;fill-opacity:1;fill-rule:nonzero;stroke:none"
       d="m 188.21362,443.52355 c -8.53902,2.13746 -3.83628,50.63084 4.08192,97.83223 7.9182,47.2014 22.28018,91.74673 27.59087,90.97334 5.84865,-0.85173 1.95688,-46.43423 -5.96132,-93.63561 -7.9182,-47.20141 -17.1869,-97.30379 -25.71147,-95.16996 z"
       id="path3676"
       sodipodi:nodetypes="cszsz" />
    <path
       id="path5181"
       d="m 159.44513,389.41135 c -3.45693,0.71027 -6.45663,2.33868 -8.73195,5.11861 94.25406,59.51099 50.43642,4.46364 266.69524,-13.83708 8.3806,-0.70919 20.06201,0.34293 25.4678,8.79425 88.53226,211.22336 -1.86884,180.28812 82.95528,236.6308 12.15362,-14.84902 -5.74031,-33.13481 -23.37235,-43.85727 0.40362,-20.54477 -1.58203,-48.93888 -10.15638,-92.85543 -10.09816,-51.72127 -21.18776,-81.48515 -30.19445,-102.61317 13.64712,-16.38557 26.40326,-42.71665 8.46247,-52.77411 -14.77103,-8.28053 -35.09273,13.16096 -44.47805,31.18643 -25.48323,-0.2171 -60.78682,0.9388 -118.94334,11.62513 -2.78826,0.51233 -5.53512,1.00726 -8.20413,1.52034 -48.38467,9.29914 -77.42507,18.66028 -97.70197,27.07084 -12.10207,-9.7798 -29.73894,-18.4869 -41.79816,-16.00929 l -1e-5,-5e-5 z"
       style="fill:#f0f6fe;fill-opacity:1;fill-rule:nonzero;stroke:none"
       sodipodi:nodetypes="ccscccscscssccc" />
    <path
       style="fill:#1a1a1a;fill-opacity:1;fill-rule:nonzero;stroke:none"
       d="m 416,597.86218 0,0 z"
       id="path3631"
       sodipodi:nodetypes="cc" />
    <g
       id="g5157">
      <g
         id="g5151">
        <path
           style="fill:#d3d9e4;fill-opacity:1;fill-rule:nonzero;stroke:none"
           d="m 296.9375,439 c -27.99038,0.002 -53.3725,25.4818 -51.5,53.75 0.87974,26.85775 25.58633,49.53145 52.25,49.21875 17.92727,0.39042 35.78028,-8.72442 45.65625,-23.6875 7.20213,19.26493 29.74687,33.22876 50.125,25.8125 23.66155,-8.1785 34.47596,-37.1052 26.96875,-60.03125 -5.55681,-19.46148 -25.33606,-35.52354 -46.15625,-31.625 -10.99467,1.77219 -20.78313,9.39694 -26.71875,17.96875 C 339.19771,450.93026 318.11847,438.07336 296.9375,439 z"
           id="path3666" />
        <path
           style="fill:#f2ffff;fill-opacity:1;fill-rule:nonzero;stroke:none"
           d="m 298.59375,443 c -27.13009,0 -49.125,21.25316 -49.125,47.46875 0,26.21559 21.99491,47.46875 49.125,47.46875 20.87399,0 38.69798,-12.56984 45.8125,-30.3125 3.08717,16.11344 14.12934,29.58524 29.09375,33.375 20.31031,5.14361 40.17204,-9.51028 44.375,-32.71875 4.20296,-23.20847 -8.84594,-46.16889 -29.15625,-51.3125 C 371.05151,452.4945 353.72909,462.97848 346.75,481.0625 342.23141,459.35514 322.38924,443 298.59375,443 z"
           id="path2818" />
        <path
           sodipodi:type="arc"
           style="fill:#333333;fill-opacity:1;fill-rule:nonzero;stroke:none"
           id="path3592"
           sodipodi:cx="317.26813"
           sodipodi:cy="498.40781"
           sodipodi:rx="11.682531"
           sodipodi:ry="8.8308897"
           d="m 328.45017,500.96489 a 11.682531,8.8308897 0 1 1 -2.83613,-8.73645 l -8.34591,6.17937 z"
           transform="matrix(0.95607255,0.19808883,-0.25148828,1.2138041,141.94305,-169.26708)"
           sodipodi:start="0.29376806"
           sodipodi:end="5.508145" />
        <path
           sodipodi:end="5.508145"
           sodipodi:start="0.29376806"
           transform="matrix(0.95607255,0.19808883,-0.25148828,1.2138041,191.94305,-165.26708)"
           d="m 328.45017,500.96489 a 11.682531,8.8308897 0 1 1 -2.83613,-8.73645 l -8.34591,6.17937 z"
           sodipodi:ry="8.8308897"
           sodipodi:rx="11.682531"
           sodipodi:cy="498.40781"
           sodipodi:cx="317.26813"
           id="path3608"
           style="fill:#333333;fill-opacity:1;fill-rule:nonzero;stroke:none"
           sodipodi:type="arc" />
      </g>
      <path
         sodipodi:nodetypes="css"
         id="path5136"
         d="m 255.40517,569.72227 c 9.72917,29.65321 60.13631,34.42805 96.20799,34.19568 72.84399,-0.46928 91.36279,-26.21773 100.75073,-54.58926"
         style="fill:none;stroke:#9caac2;stroke-width:5.5999999;stroke-linecap:round;stroke-linejoin:round;stroke-miterlimit:4;stroke-opacity:1;stroke-dasharray:none" />
    </g>
    <path
       style="fill:#d0c3e7;fill-opacity:1;fill-rule:nonzero;stroke:none"
       d="m 427.08336,440.6757 c -0.31461,0.83985 -0.15277,1.88822 0.79971,2.722 l 7.4056,6.47304 c 1.55347,1.32156 2.55368,2.18856 3.78688,3.23998 -0.66865,0.36941 -1.34945,0.78836 -2.03477,1.1765 -0.056,-0.0562 -0.10517,-0.11886 -0.16124,-0.17503 -5.09717,-5.14088 -2.7166,-2.72069 -7.23134,-7.31962 -2.36478,-2.40885 -5.7492,0.93648 -3.38441,3.34533 4.08938,4.16553 3.12519,3.16209 6.52944,6.59376 -2.04722,1.23366 -4.07474,2.5273 -5.95986,3.97104 -0.31776,0.24336 -0.59831,0.53477 -0.90386,0.7933 -2.17456,2.58188 1.45109,5.64679 3.62566,3.06491 0.0602,-0.0236 0.15312,-0.0422 0.20651,-0.0786 2.68063,-1.82861 0.41606,-0.50486 4.28403,-2.90753 0.73305,-0.45534 1.46865,-0.89681 2.20984,-1.33771 1.17173,1.17557 2.34486,2.35806 3.51933,3.53097 -1.2776,0.90394 -2.53737,1.84389 -3.78546,2.78868 -2.48314,2.28666 0.74122,5.78805 3.22435,3.50139 1.33692,-0.96596 2.69905,-1.89357 4.04901,-2.8417 1.896,1.87546 3.78427,3.75699 5.7047,5.60729 1.62826,1.56879 6.25717,5.92866 8.29616,7.69453 0.63739,0.55201 1.33425,1.05903 1.9967,1.58069 3.00709,1.53369 5.1508,-2.71071 2.14371,-4.24439 -4.85232,-4.3185 -9.50718,-8.83237 -14.13064,-13.39429 0.64078,-0.43193 1.27219,-0.87277 1.91778,-1.29748 0.36343,-0.23908 0.73807,-0.46768 1.10345,-0.70376 0.21731,0.17584 0.38158,0.29566 0.60756,0.47804 3.97311,3.20645 7.54723,6.12498 11.76005,8.90587 1.38846,0.91648 1.80118,1.08198 2.92002,1.58387 3.07992,1.3816 5.03684,-2.98083 1.95691,-4.36243 -0.99141,-0.44474 -1.28813,-0.54639 -2.50511,-1.36351 -3.78901,-2.54405 -7.01056,-5.15258 -10.57637,-8.03239 1.81654,-1.9563 -0.57793,-5.19197 -3.18306,-3.51712 -0.20877,0.13426 -0.41772,0.2696 -0.62647,0.40398 -1.10661,-0.90763 -2.16634,-1.76312 -3.12921,-2.56822 1.06199,-0.56385 2.12664,-1.12221 3.18832,-1.68654 l 6.66575,-3.48314 c 2.98986,-1.56701 0.7549,-5.82334 -2.23496,-4.25632 l -6.67852,3.5116 c -1.70526,0.90664 -3.27991,1.76355 -4.87,2.61042 -1.5923,-1.35462 -3.0328,-2.6144 -5.19466,-4.45374 l -7.36137,-6.41895 c -1.58747,-1.38961 -3.42583,-0.53447 -3.95016,0.86529 z m 13.46104,17.10119 c 0.81134,-0.45246 1.61589,-0.93118 2.43207,-1.37503 1.10824,0.9347 2.22337,1.87574 3.43592,2.87705 -0.87332,0.57328 -1.73117,1.16322 -2.59834,1.74569 -1.08875,-1.0865 -2.18395,-2.15835 -3.26965,-3.24771 z"
       id="path5183"
       inkscape:transform-center-y="21.662331" />
  </g>
</svg>
